<svg id="大数据" xmlns="http://www.w3.org/2000/svg" width="20" height="20" viewBox="0 0 20 20">
  <defs>
    <style>
      .cls-1, .cls-2 {
        fill: #bec4d1;
      }

      .cls-1 {
        opacity: 0;
      }
    </style>
  </defs>
  <rect id="矩形_5685" data-name="矩形 5685" class="cls-1" width="20" height="20"/>
  <path id="路径_29384" data-name="路径 29384" class="cls-2" d="M97,4H83a1,1,0,0,0-1,1V15a1,1,0,0,0,1,1H97a1,1,0,0,0,1-1V5a1,1,0,0,0-1-1M87,12a3,3,0,1,1,3-3H87Zm1,1V10h3a3,3,0,0,1-3,3m8-1H93V11h3Zm0-2H93V9h3Zm0-2H93V7h3Z" transform="translate(-80)"/>
</svg>
