<svg id="组件_61_1" data-name="组件 61 – 1" xmlns="http://www.w3.org/2000/svg" width="20" height="20" viewBox="0 0 20 20">
  <defs>
    <style>
      .cls-1, .cls-2 {
        fill: #bec4d1;
      }

      .cls-1 {
        opacity: 0;
      }
    </style>
  </defs>
  <rect id="矩形_5699" data-name="矩形 5699" class="cls-1" width="20" height="20"/>
  <path id="路径_29450" data-name="路径 29450" class="cls-2" d="M20864.553,23450.9l-6-3a1,1,0,0,1-.553-.895v-8a2,2,0,0,1,2-2h10a2,2,0,0,1,2,2v8a1,1,0,0,1-.553.895l-6,3a1,1,0,0,1-.895,0ZM20859,23439v8l6,3,6-3v-8a1,1,0,0,0-1-1h-10A1,1,0,0,0,20859,23439Zm7.635,7.445-1.631-.824-1.631.824a.489.489,0,0,1-.512-.041.5.5,0,0,1-.205-.473l.246-1.912-1.266-1.395a.5.5,0,0,1-.105-.494.488.488,0,0,1,.377-.33l1.789-.342.859-1.687a.5.5,0,0,1,.895,0l.859,1.688,1.789.342a.485.485,0,0,1,.377.33.5.5,0,0,1-.105.494l-1.266,1.395.246,1.912a.5.5,0,0,1-.717.514Zm-1.406-1.832,1.012.514-.152-1.207a.475.475,0,0,1,.123-.4l.824-.906-1.148-.219a.5.5,0,0,1-.354-.264l-.529-1.035-.529,1.035a.5.5,0,0,1-.354.264l-1.146.219.822.906a.51.51,0,0,1,.125.4l-.154,1.207,1.008-.514a.522.522,0,0,1,.229-.053A.512.512,0,0,1,20865.225,23444.615Z" transform="translate(-20855 -23434)"/>
</svg>
