<svg id="关联店铺" xmlns="http://www.w3.org/2000/svg" width="20" height="20" viewBox="0 0 20 20">
  <defs>
    <style>
      .cls-1, .cls-2 {
        fill: #bec4d1;
      }

      .cls-1 {
        opacity: 0;
      }
    </style>
  </defs>
  <rect id="矩形_5713" data-name="矩形 5713" class="cls-1" width="20" height="20"/>
  <path id="路径_29397" data-name="路径 29397" class="cls-2" d="M177.458,86.644l-1.207-3.015a1,1,0,0,0-.928-.629H164.677a1,1,0,0,0-.928.629l-1.207,3.015A2.192,2.192,0,0,0,164,89.588V96a1,1,0,0,0,1,1h10a1,1,0,0,0,1-1V89.588a2.192,2.192,0,0,0,1.458-2.944M175,96H165V89.641a2.236,2.236,0,0,0,.3-.074L167,89l2.3.767a2.225,2.225,0,0,0,1.4,0L173,89l1.7.567a2.236,2.236,0,0,0,.3.074Zm1.26-7.675a1.2,1.2,0,0,1-.858.356,1.22,1.22,0,0,1-.384-.062l-1.7-.568a1,1,0,0,0-.632,0l-2.3.767a1.22,1.22,0,0,1-.768,0l-2.3-.767a1,1,0,0,0-.632,0l-1.7.568a1.22,1.22,0,0,1-.384.062,1.215,1.215,0,0,1-1.127-1.665L164.677,84h10.646l1.206,3.016a1.211,1.211,0,0,1-.269,1.309M170,91a.5.5,0,0,0-.5.5v3a.5.5,0,0,0,1,0v-3a.5.5,0,0,0-.5-.5" transform="translate(-160 -80)"/>
</svg>
