<svg id="公众上报" xmlns="http://www.w3.org/2000/svg" width="20" height="20" viewBox="0 0 20 20">
  <defs>
    <style>
      .cls-1, .cls-2 {
        fill: #bec4d1;
      }

      .cls-1 {
        opacity: 0;
      }
    </style>
  </defs>
  <rect id="矩形_5701" data-name="矩形 5701" class="cls-1" width="20" height="20"/>
  <path id="路径_29392" data-name="路径 29392" class="cls-2" d="M166.5,46.5H168V49a.5.5,0,0,0,.5.5h3a.5.5,0,0,0,.5-.5V46.5h1.5a.5.5,0,0,0,.377-.829l-3.5-4a.515.515,0,0,0-.753,0l-3.5,4a.5.5,0,0,0,.376.829m3.5-3.741,2.4,2.741h-.9a.5.5,0,0,0-.5.5v2.5h-2V46a.5.5,0,0,0-.5-.5h-.9ZM168,52h4V51h-4Zm8.5-6.692a.5.5,0,0,0-.223.053L175,46v1.118l1-.5v6.764l-3.1,1.549-6.181-1.766a2,2,0,0,0-1.659.259L164,54.131v-6.6l1-.667v-1.2L163.445,46.7a1,1,0,0,0-.445.832v7.53a.5.5,0,0,0,.5.5.491.491,0,0,0,.276-.085l1.837-1.225a1.007,1.007,0,0,1,.555-.168.993.993,0,0,1,.275.039l6.181,1.766a1.008,1.008,0,0,0,.722-.067l3.1-1.55a1,1,0,0,0,.553-.894V45.809a.5.5,0,0,0-.5-.5" transform="translate(-160 -40)"/>
</svg>
