<svg id="积分统计" xmlns="http://www.w3.org/2000/svg" width="20" height="20" viewBox="0 0 20 20">
  <defs>
    <style>
      .cls-1, .cls-2 {
        fill: #bec4d1;
      }

      .cls-1 {
        opacity: 0;
      }
    </style>
  </defs>
  <rect id="矩形_5703" data-name="矩形 5703" class="cls-1" width="20" height="20"/>
  <path id="路径_29393" data-name="路径 29393" class="cls-2" d="M216.45,46.7a1.015,1.015,0,0,0-.375.073L213,48l-1.378-1.837a2,2,0,1,0-3.244,0L207,48l-3.075-1.23a1.012,1.012,0,0,0-.375-.073,1,1,0,0,0-.954,1.289l2.19,7.3a1,1,0,0,0,.958.712h8.512a1,1,0,0,0,.958-.712l2.19-7.3a1,1,0,0,0-.954-1.289M214.256,55h-8.512l-2.19-7.3,3.075,1.23.711.284.46-.613,1.378-1.837.441-.587-.428-.6A.988.988,0,0,1,209,45a1,1,0,0,1,2,0,.988.988,0,0,1-.19.579l-.428.6.44.587L212.2,48.6l.46.613.712-.284,3.075-1.23Zm-8.6-5.07,1.318,4.394.958-.288-1.318-4.393Z" transform="translate(-200 -40)"/>
</svg>
