<svg id="监控点" xmlns="http://www.w3.org/2000/svg" width="20" height="20" viewBox="0 0 20 20">
  <defs>
    <style>
      .cls-1, .cls-2 {
        fill: #bec4d1;
      }

      .cls-1 {
        opacity: 0;
      }
    </style>
  </defs>
  <rect id="矩形_5711" data-name="矩形 5711" class="cls-1" width="20" height="20"/>
  <path id="路径_29396" data-name="路径 29396" class="cls-2" d="M138.015,89.986l-10.051-5.8a1,1,0,0,0-.5-.134H126a1,1,0,0,0-.867.5L123,88.245a1,1,0,0,0,.366,1.366l8.821,5.093a.992.992,0,0,0,.5.134,1,1,0,0,0,.526-.149l4.828-2.986a1,1,0,0,0-.026-1.717m-14.149-1.241,2.134-3.7h1.464l.83.479-2.5,4.331Zm8.821,5.093-6.027-3.479,2.5-4.331,8.355,4.825Zm-6.541-.692-.854.854H123V92h-1v5h1V95h2.5a.5.5,0,0,0,.353-.146l1-1a.5.5,0,0,0-.707-.708" transform="translate(-120 -80)"/>
</svg>
