<svg id="区域分析" xmlns="http://www.w3.org/2000/svg" width="20" height="20" viewBox="0 0 20 20">
  <defs>
    <style>
      .cls-1, .cls-2 {
        fill: #bec4d1;
      }

      .cls-1 {
        opacity: 0;
      }
    </style>
  </defs>
  <rect id="矩形_5697" data-name="矩形 5697" class="cls-1" width="20" height="20"/>
  <path id="路径_29390" data-name="路径 29390" class="cls-2" d="M90,51.657l2.828-2.828a4,4,0,1,0-5.657,0Zm-2.122-7.778a3,3,0,1,1,4.243,4.243L90,50.243l-2.122-2.121a3.005,3.005,0,0,1,0-4.243M90,47a1,1,0,1,0-.707-.292A1,1,0,0,0,90,47m6.447-1.276-1.566-.783A5.039,5.039,0,0,1,95,46c0,.039-.01.075-.011.113L96,46.618v7.764l-2.205-1.1a2,2,0,0,0-1.444-.134L86.17,54.912,84,53.465v-7.6l1.057.705a5.01,5.01,0,0,1,0-1.2l-1.285-.856a.489.489,0,0,0-.276-.085.5.5,0,0,0-.5.5v8.53a1,1,0,0,0,.445.832l2.17,1.447a1,1,0,0,0,.555.168.986.986,0,0,0,.274-.039l6.182-1.766a1.024,1.024,0,0,1,.274-.038,1,1,0,0,1,.448.1l2.928,1.465A.5.5,0,0,0,97,55.191V46.618a1,1,0,0,0-.553-.894" transform="translate(-80 -40)"/>
</svg>
