<svg id="report" xmlns="http://www.w3.org/2000/svg" width="20" height="20" viewBox="0 0 20 20">
  <rect id="矩形_8008" data-name="矩形 8008" width="20" height="20" fill="#97a0b4" opacity="0"/>
  <path id="路径_29926" data-name="路径 29926" d="M-15984,23775.9a2,2,0,0,1-1.743-2.979l6.087-10.9a1.982,1.982,0,0,1,1.748-1.025,1.981,1.981,0,0,1,1.748,1.025l6.087,10.9a2,2,0,0,1-1.742,2.979Zm5.221-13.391-6.093,10.9a.973.973,0,0,0,.013.99.967.967,0,0,0,.859.494h12.185a.975.975,0,0,0,.858-.494.973.973,0,0,0,.013-.99l-6.093-10.9a.984.984,0,0,0-.871-.514A.984.984,0,0,0-15978.777,23762.512Zm-.131,11.385v-2h2v2Zm0-3v-5h2v5Z" transform="translate(15987.907 -23757.896)" fill="#bec4d1"/>
</svg>
