<svg id="角色管理" xmlns="http://www.w3.org/2000/svg" width="20" height="20" viewBox="0 0 20 20">
  <defs>
    <style>
      .cls-1, .cls-2 {
        fill: #bec4d1;
      }

      .cls-1 {
        opacity: 0;
      }
    </style>
  </defs>
  <rect id="矩形_5717" data-name="矩形 5717" class="cls-1" width="20" height="20"/>
  <path id="路径_29399" data-name="路径 29399" class="cls-2" d="M250.5,82,244,84v5c0,5,6.5,8,6.5,8s6.5-3,6.5-8V84Zm0,13.877c-1.352-.73-5.5-3.265-5.5-6.877V84.739l5.5-1.693,5.5,1.693V89c0,3.612-4.149,6.147-5.5,6.877M250.5,85a2.5,2.5,0,0,0-.5,4.948V94h1V92h2V91h-2V89.948A2.5,2.5,0,0,0,250.5,85m0,4a1.5,1.5,0,1,1,1.061-.439A1.493,1.493,0,0,1,250.5,89" transform="translate(-240 -80)"/>
</svg>
