<svg id="组件_84_1" data-name="组件 84 – 1" xmlns="http://www.w3.org/2000/svg" width="20" height="20" viewBox="0 0 20 20">
  <rect id="矩形_6831" data-name="矩形 6831" width="20" height="20" fill="#97a0b4" opacity="0"/>
  <path id="路径_29928" data-name="路径 29928" d="M-15515,23965a2,2,0,0,1-2-2v-10a2,2,0,0,1,2-2h8a2,2,0,0,1,2,2v10a2,2,0,0,1-2,2Zm-1-12v10a1,1,0,0,0,1,1h8a1,1,0,0,0,1-1v-10a1,1,0,0,0-1-1h-1v2a1,1,0,0,1-1,1h-4a1,1,0,0,1-1-1v-2h-1A1,1,0,0,0-15516,23953Zm3,1h4v-2h-4Zm.535,7.459-2-2a.654.654,0,0,1,0-.92.655.655,0,0,1,.921,0l1.539,1.539,3.537-3.541a.651.651,0,0,1,.92,0,.642.642,0,0,1,0,.92l-4,4a.655.655,0,0,1-.457.191A.66.66,0,0,1-15512.462,23961.459Z" transform="translate(15521 -23948)" fill="#bec4d1"/>
</svg>
