<svg id="所属片区" xmlns="http://www.w3.org/2000/svg" width="20" height="20" viewBox="0 0 20 20">
  <defs>
    <style>
      .cls-1, .cls-2 {
        fill: #bec4d1;
      }

      .cls-1 {
        opacity: 0;
      }
    </style>
  </defs>
  <rect id="矩形_5709" data-name="矩形 5709" class="cls-1" width="20" height="20"/>
  <path id="路径_29381" data-name="路径 29381" class="cls-2" d="M94.242,84.757a6,6,0,0,0-8.485,8.485L90,97.485l4.242-4.243a6,6,0,0,0,0-8.485m-.707,7.778L90,96.071l-3.536-3.536a5,5,0,1,1,7.071,0M90,86a3,3,0,1,0,2.121.879A2.992,2.992,0,0,0,90,86m1.414,4.414a2,2,0,1,1,0-2.828,1.986,1.986,0,0,1,0,2.828" transform="translate(-80 -80)"/>
</svg>
