<svg id="system_management" data-name="system management" xmlns="http://www.w3.org/2000/svg" width="20" height="20" viewBox="0 0 20 20">
  <path id="路径_29507" data-name="路径 29507" d="M0,0H20V20H0Z" fill="#97a0b4" opacity="0"/>
  <path id="路径_29924" data-name="路径 29924" d="M-15850,23886.447a1,1,0,0,1-1-1v-4a1,1,0,0,1,1-1h4a1,1,0,0,1,1,1v4a1,1,0,0,1-1,1Zm-8,0a1,1,0,0,1-1-1v-4a1,1,0,0,1,1-1h4a1,1,0,0,1,1,1v4a1,1,0,0,1-1,1Zm9.789-7.672-2.829-2.824a1,1,0,0,1,0-1.414l2.829-2.83a1,1,0,0,1,1.415,0l2.829,2.83a1,1,0,0,1,0,1.414l-2.829,2.824a.993.993,0,0,1-.707.3A.993.993,0,0,1-15848.208,23878.775Zm-9.789-.324a1,1,0,0,1-1-1v-4a1,1,0,0,1,1-1h4a1,1,0,0,1,1,1v4a1,1,0,0,1-1,1Z" transform="translate(15862 -23869.449)" fill="#bec4d1"/>
</svg>
