<svg id="台账" xmlns="http://www.w3.org/2000/svg" width="20" height="20" viewBox="0 0 20 20">
  <defs>
    <style>
      .cls-1, .cls-2 {
        fill: #bec4d1;
      }

      .cls-1 {
        opacity: 0;
      }
    </style>
  </defs>
  <rect id="矩形_5683" data-name="矩形 5683" class="cls-1" width="20" height="20"/>
  <path id="路径_29383" data-name="路径 29383" class="cls-2" d="M56,16l-1.56-2.34a1.5,1.5,0,1,0-1.88,0L51,16a1,1,0,0,0,0,2h5a1,1,0,0,0,0-2m-5.256-2.32a3.022,3.022,0,0,1-.039-2.284A2.991,2.991,0,0,1,55,9.913V4a1,1,0,0,0-1-1H44a1,1,0,0,0-1,1V15a1,1,0,0,0,1,1h4.715a2.51,2.51,0,0,1,1.365-1.325ZM45,5.5h6v1H45Zm3,7H45v-1h3Zm-3-4h6v1H45Z" transform="translate(-40)"/>
</svg>
