<svg id="user" xmlns="http://www.w3.org/2000/svg" width="20" height="20" viewBox="0 0 20 20">
  <rect id="矩形_6248" data-name="矩形 6248" width="20" height="20" fill="#97a0b4" opacity="0"/>
  <path id="路径_29925" data-name="路径 29925" d="M-15945,23776a1,1,0,0,1-1-1v-1a4,4,0,0,1,4-4h4a4,4,0,0,1,4,4v1a1,1,0,0,1-1,1Zm0-2v1h10v-1a3,3,0,0,0-3-3h-4A3,3,0,0,0-15945,23774Zm1-9a4,4,0,0,1,4-4,4,4,0,0,1,4,4,4,4,0,0,1-4,4A4,4,0,0,1-15944,23765Zm1,0a3,3,0,0,0,3,3,3,3,0,0,0,3-3,3,3,0,0,0-3-3A3,3,0,0,0-15943,23765Z" transform="translate(15950 -23759)" fill="#bec4d1"/>
</svg>
