<svg id="用户管理" xmlns="http://www.w3.org/2000/svg" width="20" height="20" viewBox="0 0 20 20">
  <defs>
    <style>
      .cls-1, .cls-2 {
        fill: #bec4d1;
      }

      .cls-1 {
        opacity: 0;
      }
    </style>
  </defs>
  <rect id="矩形_5689" data-name="矩形 5689" class="cls-1" width="20" height="20"/>
  <path id="路径_29386" data-name="路径 29386" class="cls-2" d="M170.11,10.385a4,4,0,1,0-4.221,0,6.009,6.009,0,0,0-3.779,4.463A.992.992,0,0,0,163.1,16h9.8a.991.991,0,0,0,.991-1.152,6.006,6.006,0,0,0-3.779-4.463m4.463-.11A4.457,4.457,0,0,0,176,7a4.5,4.5,0,0,0-4.5-4.5.5.5,0,0,0,0,1,3.492,3.492,0,0,1,1.845,6.461.5.5,0,0,0,.089.892,5.53,5.53,0,0,1,3.465,4.09.5.5,0,0,0,.49.4.454.454,0,0,0,.1-.01.5.5,0,0,0,.4-.585,6.54,6.54,0,0,0-3.307-4.478" transform="translate(-160)"/>
</svg>
