<svg id="volunteer" xmlns="http://www.w3.org/2000/svg" width="20" height="20" viewBox="0 0 20 20">
  <rect id="矩形_6831" data-name="矩形 6831" width="20" height="20" fill="#97a0b4" opacity="0"/>
  <path id="路径_29927" data-name="路径 29927" d="M-16019.535,23773.68l-5.186-5.18a4.4,4.4,0,0,1,0-6.211,4.4,4.4,0,0,1,3.115-1.289,4.375,4.375,0,0,1,3.1,1.289,4.386,4.386,0,0,1,3.108-1.289,4.353,4.353,0,0,1,3.1,1.289,4.385,4.385,0,0,1,0,6.211l-5.167,5.18a1.46,1.46,0,0,1-1.038.43A1.46,1.46,0,0,1-16019.535,23773.68Zm-4.475-10.68a3.384,3.384,0,0,0,0,4.791l5.185,5.184a.43.43,0,0,0,.328.133.463.463,0,0,0,.328-.133l5.173-5.184a3.371,3.371,0,0,0,.99-2.4,3.388,3.388,0,0,0-.99-2.4,3.375,3.375,0,0,0-2.4-1,3.38,3.38,0,0,0-2.4,1l-.7.709-.71-.715a3.363,3.363,0,0,0-2.393-1A3.378,3.378,0,0,0-16024.01,23763Zm.012,3a3,3,0,0,1,3-3v1a2,2,0,0,0-2,2Z" transform="translate(16028.5 -23757.502)" fill="#bec4d1"/>
</svg>
