<svg id="工作日设置" xmlns="http://www.w3.org/2000/svg" width="20" height="20" viewBox="0 0 20 20">
  <defs>
    <style>
      .cls-1, .cls-2 {
        fill: #bec4d1;
      }

      .cls-1 {
        opacity: 0;
      }
    </style>
  </defs>
  <rect id="矩形_5987" data-name="矩形 5987" class="cls-1" width="20" height="20"/>
  <path id="路径_29448" data-name="路径 29448" class="cls-2" d="M20859,23450a1,1,0,0,1-1-1v-8a1,1,0,0,1,1-1h2v-2a1,1,0,0,1,1-1h6a1,1,0,0,1,1,1v2h2a1,1,0,0,1,1,1v8a1,1,0,0,1-1,1Zm0-1h12v-5h-3.551a2.5,2.5,0,0,1-4.9,0H20859Zm6-4a1.511,1.511,0,0,0,1.414-1h-2.828A1.5,1.5,0,0,0,20865,23445Zm6-2v-2h-12v2Zm-9-3h6v-2h-6Z" transform="translate(-20855 -23434)"/>
</svg>
