<svg id="问题分析" xmlns="http://www.w3.org/2000/svg" width="20" height="20" viewBox="0 0 20 20">
  <defs>
    <style>
      .cls-1, .cls-2 {
        fill: #bec4d1;
      }

      .cls-1 {
        opacity: 0;
      }
    </style>
  </defs>
  <rect id="矩形_5695" data-name="矩形 5695" class="cls-1" width="20" height="20"/>
  <path id="路径_29389" data-name="路径 29389" class="cls-2" d="M56,44H44a1,1,0,0,0-1,1v9a1,1,0,0,0,1,1h3l2.293,2.293a1,1,0,0,0,1.414,0L53,55h3a1,1,0,0,0,1-1V45a1,1,0,0,0-1-1m0,10H52.586l-.293.293L50,56.586l-2.293-2.293L47.414,54H44V45H56Zm-6.8,0h1.378V52.671H49.2Zm-.045-5.729a1.23,1.23,0,0,1,.227-.776.755.755,0,0,1,.624-.275.815.815,0,0,1,.618.231.916.916,0,0,1,.221.657v0a1.38,1.38,0,0,1-.088.5,1.877,1.877,0,0,1-.221.422q-.134.19-.371.48c-.205.25-.37.471-.5.661a2.876,2.876,0,0,0-.323.7,3.027,3.027,0,0,0-.133.934h1.35a2.306,2.306,0,0,1,.113-.751,2.366,2.366,0,0,1,.281-.577c.111-.164.26-.356.445-.578s.333-.412.442-.572a2.327,2.327,0,0,0,.278-.563,2.183,2.183,0,0,0,.114-.727v-.006a2.15,2.15,0,0,0-.264-1.1,1.708,1.708,0,0,0-.768-.694A2.8,2.8,0,0,0,49.994,46a2.419,2.419,0,0,0-1.168.267,1.855,1.855,0,0,0-.766.776,2.767,2.767,0,0,0-.3,1.228v.005h1.39Z" transform="translate(-40 -40)"/>
</svg>
