<svg id="问题类别" xmlns="http://www.w3.org/2000/svg" width="20" height="20" viewBox="0 0 20 20">
  <defs>
    <style>
      .cls-1, .cls-2 {
        fill: #bec4d1;
      }

      .cls-1 {
        opacity: 0;
      }
    </style>
  </defs>
  <rect id="矩形_5707" data-name="矩形 5707" class="cls-1" width="20" height="20"/>
  <path id="路径_29395" data-name="路径 29395" class="cls-2" d="M47.5,88h5a.5.5,0,0,0,.5-.5v-4a.5.5,0,0,0-.5-.5h-5a.5.5,0,0,0-.5.5v4a.5.5,0,0,0,.5.5m.5-4h4v3H48Zm8.5,8H55V90.5A1.5,1.5,0,0,0,53.5,89h-7A1.5,1.5,0,0,0,45,90.5V92H43.5a.5.5,0,0,0-.5.5v4a.5.5,0,0,0,.5.5h4a.5.5,0,0,0,.5-.5v-4a.5.5,0,0,0-.5-.5H46V90.5a.5.5,0,0,1,.5-.5h7a.5.5,0,0,1,.5.5V92H52.5a.5.5,0,0,0-.5.5v4a.5.5,0,0,0,.5.5h4a.5.5,0,0,0,.5-.5v-4a.5.5,0,0,0-.5-.5M47,93v3H44V93h3Zm9,3H53V93h3Z" transform="translate(-40 -80)"/>
</svg>
