<svg id="研判案件数设置" xmlns="http://www.w3.org/2000/svg" width="20" height="20" viewBox="0 0 20 20">
  <defs>
    <style>
      .cls-1, .cls-2 {
        fill: #bec4d1;
      }

      .cls-1 {
        opacity: 0;
      }
    </style>
  </defs>
  <rect id="矩形_5715" data-name="矩形 5715" class="cls-1" width="20" height="20"/>
  <path id="路径_29398" data-name="路径 29398" class="cls-2" d="M210,83a7,7,0,1,0,7,7,7,7,0,0,0-7-7m0,13a6,6,0,1,1,6-6,6.007,6.007,0,0,1-6,6m2.5-10.33-3.23,3.924a.847.847,0,0,0,.23,1.272.837.837,0,0,0,.422.114.847.847,0,0,0,.795-.55Z" transform="translate(-200 -80)"/>
</svg>
