<svg id="组件_74_2" data-name="组件 74 – 2" xmlns="http://www.w3.org/2000/svg" width="20" height="20" viewBox="0 0 20 20">
  <rect id="矩形_5701" data-name="矩形 5701" width="20" height="20" fill="#bec4d1" opacity="0"/>
  <path id="路径_29919" data-name="路径 29919" d="M-15507.373,19693.9l-6.182-1.766a.742.742,0,0,0-.273-.043.952.952,0,0,0-.557.172l-1.842,1.223a.507.507,0,0,1-.273.086.5.5,0,0,1-.5-.5v-7.535a1,1,0,0,1,.447-.828l1.561-1.039v1.2l-1,.668v6.6l1.057-.711a1.991,1.991,0,0,1,1.113-.336,2.291,2.291,0,0,1,.545.074l6.184,1.77,3.1-1.551v-6.762l-.992.5V19684l1.275-.633a.385.385,0,0,1,.219-.055.5.5,0,0,1,.5.5v7.566a.993.993,0,0,1-.555.895l-3.1,1.547a.918.918,0,0,1-.447.109A1.089,1.089,0,0,1-15507.373,19693.9ZM-15513,19690a2,2,0,0,1-1.994-2,2,2,0,0,1,1.994-2h6a2,2,0,0,1,2.008,2,2.006,2.006,0,0,1-2.008,2Zm-1-2a1,1,0,0,0,1,1h6a1,1,0,0,0,1-1,1.007,1.007,0,0,0-1-1h-6A1.007,1.007,0,0,0-15514,19688Zm1-5.5a3,3,0,0,1,3-3,3,3,0,0,1,3,3,3,3,0,0,1-3,3A3,3,0,0,1-15513,19682.5Zm1,0a1.994,1.994,0,0,0,2,1.992,1.994,1.994,0,0,0,2-1.992,2.007,2.007,0,0,0-2-2.008A2.007,2.007,0,0,0-15512,19682.5Z" transform="translate(15520 -19677)" fill="#bec4d1"/>
</svg>
